<?xml version="1.0" encoding="UTF-8"?>
<!DOCTYPE svg PUBLIC "-//W3C//DTD SVG 1.1//EN" "http://www.w3.org/Graphics/SVG/1.1/DTD/svg11.dtd">
<svg xmlns="http://www.w3.org/2000/svg" version="1.1" width="231px" height="48px" style="shape-rendering:geometricPrecision; text-rendering:geometricPrecision; image-rendering:optimizeQuality; fill-rule:evenodd; clip-rule:evenodd" xmlns:xlink="http://www.w3.org/1999/xlink">
<g><path style="opacity:0.658" fill="#32a3da" d="M 23.5,5.5 C 24.5,6.83333 25.5,8.16667 26.5,9.5C 25.8501,9.80393 25.1835,10.1373 24.5,10.5C 23.2925,8.7298 21.6259,7.7298 19.5,7.5C 16.8853,8.26922 14.2186,8.60255 11.5,8.5C 11.8399,5.85587 11.1733,3.52254 9.5,1.5C 14.5872,0.968721 19.2539,2.30205 23.5,5.5 Z"/></g>
<g><path style="opacity:0.805" fill="#fde105" d="M 25.5,-0.5 C 26.1667,-0.5 26.8333,-0.5 27.5,-0.5C 29.5402,1.19533 31.3736,3.19533 33,5.5C 33.4828,6.44802 33.6495,7.44802 33.5,8.5C 33.5,9.83333 33.5,11.1667 33.5,12.5C 33.1667,12.5 32.8333,12.5 32.5,12.5C 31.2946,11.3143 29.9613,11.3143 28.5,12.5C 28.5393,10.7761 28.206,10.4427 27.5,11.5C 26.6618,11.1583 26.3284,10.4916 26.5,9.5C 25.5,8.16667 24.5,6.83333 23.5,5.5C 25.4414,3.68412 26.1081,1.68412 25.5,-0.5 Z"/></g>
<g><path style="opacity:0.788" fill="#2a8bc8" d="M 26.5,9.5 C 26.3284,10.4916 26.6618,11.1583 27.5,11.5C 27.5,11.8333 27.5,12.1667 27.5,12.5C 25.2188,12.0773 23.5521,12.744 22.5,14.5C 22.1667,14.5 21.8333,14.5 21.5,14.5C 21.5,13.8333 21.5,13.1667 21.5,12.5C 21.1667,11.1667 20.8333,11.1667 20.5,12.5C 18.857,12.4802 17.5237,13.1468 16.5,14.5C 15.4763,13.1468 14.143,12.4802 12.5,12.5C 12.9746,15.0821 12.3079,17.0821 10.5,18.5C 10.2529,15.0613 10.5863,11.728 11.5,8.5C 14.2186,8.60255 16.8853,8.26922 19.5,7.5C 21.6259,7.7298 23.2925,8.7298 24.5,10.5C 25.1835,10.1373 25.8501,9.80393 26.5,9.5 Z"/></g>
<g><path style="opacity:1" fill="#cbce02" d="M 38.5,17.5 C 37.6365,18.463 36.9698,18.463 36.5,17.5C 37.1667,16.1667 37.8333,14.8333 38.5,13.5C 37.675,12.6143 36.675,12.281 35.5,12.5C 35.2627,16.2887 34.5961,16.2887 33.5,12.5C 33.5,11.1667 33.5,9.83333 33.5,8.5C 36.0991,8.45063 38.2658,7.45063 40,5.5C 40.9195,9.73143 40.4195,13.7314 38.5,17.5 Z"/></g>
<g><path style="opacity:0.896" fill="#0b0c0a" d="M 20.5,12.5 C 20.8333,12.5 21.1667,12.5 21.5,12.5C 21.5,13.1667 21.5,13.8333 21.5,14.5C 21.8333,17.1667 22.1667,17.1667 22.5,14.5C 23.5521,12.744 25.2188,12.0773 27.5,12.5C 27.8333,12.5 28.1667,12.5 28.5,12.5C 29.0169,14.2739 29.3502,15.9405 29.5,17.5C 30.5981,18.397 30.5981,19.2303 29.5,20C 27.7444,20.2022 26.0777,20.7022 24.5,21.5C 28.0077,22.0665 31.341,21.2332 34.5,19C 33.9558,18.2828 33.2891,17.7828 32.5,17.5C 32.2488,15.8297 31.5822,14.3297 30.5,13C 31.0944,12.5357 31.7611,12.369 32.5,12.5C 32.8333,12.5 33.1667,12.5 33.5,12.5C 34.5961,16.2887 35.2627,16.2887 35.5,12.5C 36.675,12.281 37.675,12.6143 38.5,13.5C 37.8333,14.8333 37.1667,16.1667 36.5,17.5C 36.9698,18.463 37.6365,18.463 38.5,17.5C 38.8333,17.5 39.1667,17.5 39.5,17.5C 39.6309,18.3764 39.2975,19.0431 38.5,19.5C 34.9362,21.57 31.2695,23.4034 27.5,25C 20.9932,24.8617 14.6598,25.0284 8.5,25.5C 7.56552,26.5676 7.23219,27.901 7.5,29.5C 5.82947,25.2579 6.82947,21.5913 10.5,18.5C 12.3079,17.0821 12.9746,15.0821 12.5,12.5C 14.143,12.4802 15.4763,13.1468 16.5,14.5C 17.5237,13.1468 18.857,12.4802 20.5,12.5 Z"/></g>
<g><path style="opacity:0.808" fill="#000000" d="M 108.5,12.5 C 112.257,12.0708 115.757,12.7375 119,14.5C 120.373,16.6954 120.706,19.0288 120,21.5C 117.537,24.9646 114.704,28.1312 111.5,31C 114.482,31.498 117.482,31.6646 120.5,31.5C 120.5,32.5 120.5,33.5 120.5,34.5C 115.489,34.6659 110.489,34.4993 105.5,34C 104.465,32.4931 104.632,30.9931 106,29.5C 109.606,26.2354 112.773,22.7354 115.5,19C 112.89,14.4209 110.556,14.7543 108.5,20C 107.207,20.49 105.873,20.6567 104.5,20.5C 104.526,17.0377 105.859,14.3711 108.5,12.5 Z"/></g>
<g><path style="opacity:0.802" fill="#000000" d="M 135.5,12.5 C 138.187,12.3359 140.854,12.5026 143.5,13C 147.123,17.5611 148.29,22.7277 147,28.5C 145.171,34.1582 141.337,35.9916 135.5,34C 134.667,33.1667 133.833,32.3333 133,31.5C 130.338,24.5603 131.171,18.227 135.5,12.5 Z M 138.5,15.5 C 139.496,15.4142 140.329,15.7476 141,16.5C 142.52,20.3749 142.854,24.3749 142,28.5C 140.333,32.5 138.667,32.5 137,28.5C 136.055,23.9393 136.555,19.606 138.5,15.5 Z"/></g>
<g><path style="opacity:0.833" fill="#000000" d="M 164.5,12.5 C 166.288,12.2148 167.955,12.5481 169.5,13.5C 172.442,19.7181 175.109,26.0515 177.5,32.5C 177,33.8805 176,34.5472 174.5,34.5C 172.6,33.5529 171.267,32.0529 170.5,30C 165.92,28.6284 162.586,29.9618 160.5,34C 159.207,34.49 157.873,34.6567 156.5,34.5C 158.185,26.7748 160.852,19.4415 164.5,12.5 Z M 166.5,19.5 C 167.578,21.5394 168.578,23.706 169.5,26C 167.866,26.4935 166.199,26.6602 164.5,26.5C 164.767,24.0347 165.434,21.7014 166.5,19.5 Z"/></g>
<g><path style="opacity:0.805" fill="#000000" d="M 198.5,12.5 C 202.908,12.062 204.575,14.062 203.5,18.5C 204.5,18.5 205.5,18.5 206.5,18.5C 206.5,19.5 206.5,20.5 206.5,21.5C 205.5,21.5 204.5,21.5 203.5,21.5C 203.18,24.8984 203.513,28.2317 204.5,31.5C 206.883,30.538 207.883,31.538 207.5,34.5C 204.552,34.7771 201.719,34.4438 199,33.5C 198.827,29.4592 198.327,25.4592 197.5,21.5C 194.833,20.5 194.833,19.5 197.5,18.5C 198.466,16.604 198.799,14.604 198.5,12.5 Z"/></g>
<g><path style="opacity:0.867" fill="#000000" d="M 208.5,12.5 C 209.833,12.5 211.167,12.5 212.5,12.5C 212.337,14.8568 212.503,17.1902 213,19.5C 217.341,17.4901 220.675,18.4901 223,22.5C 223.667,26.1667 223.667,29.8333 223,33.5C 221.644,34.3802 220.144,34.7135 218.5,34.5C 218.665,30.8183 218.499,27.1516 218,23.5C 215.595,21.1787 213.928,21.8454 213,25.5C 212.502,28.4816 212.335,31.4816 212.5,34.5C 211.167,34.5 209.833,34.5 208.5,34.5C 208.5,27.1667 208.5,19.8333 208.5,12.5 Z"/></g>
<g><path style="opacity:0.89" fill="#dea400" d="M 32.5,12.5 C 31.7611,12.369 31.0944,12.5357 30.5,13C 31.5822,14.3297 32.2488,15.8297 32.5,17.5C 31.5,17.5 30.5,17.5 29.5,17.5C 29.3502,15.9405 29.0169,14.2739 28.5,12.5C 29.9613,11.3143 31.2946,11.3143 32.5,12.5 Z"/></g>
<g><path style="opacity:0.818" fill="#000000" d="M 42.5,18.5 C 49.4306,18.6962 56.4306,18.8629 63.5,19C 64,19.5 64.5,20 65,20.5C 65.4992,25.1548 65.6658,29.8215 65.5,34.5C 63.8561,34.7135 62.3561,34.3802 61,33.5C 59.7926,17.6972 58.126,17.6972 56,33.5C 54.6439,34.3802 53.1439,34.7135 51.5,34.5C 51.6655,30.4862 51.4988,26.4862 51,22.5C 48.9098,21.2092 47.5764,21.8758 47,24.5C 46.5017,27.8168 46.335,31.1501 46.5,34.5C 44.8561,34.7135 43.3561,34.3802 42,33.5C 41.2223,28.4158 41.3889,23.4158 42.5,18.5 Z"/></g>
<g><path style="opacity:0.776" fill="#000000" d="M 69.5,18.5 C 74.5129,18.4473 79.5129,18.614 84.5,19C 85.8584,22.073 87.0251,25.2397 88,28.5C 89.2647,25.5394 90.4314,22.5394 91.5,19.5C 92.6888,18.5713 94.0222,18.238 95.5,18.5C 94.7158,23.7485 93.0492,28.7485 90.5,33.5C 88.8333,34.8333 87.1667,34.8333 85.5,33.5C 84,29.8333 82.5,26.1667 81,22.5C 79.4173,22.507 77.7506,22.1737 76,21.5C 75.3333,22.1667 74.6667,22.8333 74,23.5C 73.5014,27.1516 73.3347,30.8183 73.5,34.5C 71.8561,34.7135 70.3561,34.3802 69,33.5C 68.2223,28.4158 68.3889,23.4158 69.5,18.5 Z"/></g>
<g><path style="opacity:0.804" fill="#000000" d="M 179.5,18.5 C 180.833,18.5 182.167,18.5 183.5,18.5C 183.335,21.8499 183.502,25.1832 184,28.5C 185.408,32.1685 187.075,32.1685 189,28.5C 189.498,25.1832 189.665,21.8499 189.5,18.5C 191.144,18.2865 192.644,18.6198 194,19.5C 194.667,24.1667 194.667,28.8333 194,33.5C 193.275,34.0585 192.442,34.3918 191.5,34.5C 188.314,34.3316 184.981,34.165 181.5,34C 178.502,29.1846 177.835,24.018 179.5,18.5 Z"/></g>
<g><path style="opacity:0.545" fill="#7d7009" d="M 29.5,17.5 C 30.5,17.5 31.5,17.5 32.5,17.5C 33.2891,17.7828 33.9558,18.2828 34.5,19C 31.341,21.2332 28.0077,22.0665 24.5,21.5C 26.0777,20.7022 27.7444,20.2022 29.5,20C 30.5981,19.2303 30.5981,18.397 29.5,17.5 Z"/></g>
<g><path style="opacity:0.927" fill="#9cac18" d="M 39.5,17.5 C 40.0967,17.7352 40.4301,18.2352 40.5,19C 37.1565,20.8576 35.8232,23.6909 36.5,27.5C 26.7734,28.1389 17.4401,27.4722 8.5,25.5C 14.6598,25.0284 20.9932,24.8617 27.5,25C 31.2695,23.4034 34.9362,21.57 38.5,19.5C 39.2975,19.0431 39.6309,18.3764 39.5,17.5 Z"/></g>
<g><path style="opacity:0.94" fill="#819d26" d="M 8.5,25.5 C 17.4401,27.4722 26.7734,28.1389 36.5,27.5C 35.9744,29.2303 34.9744,30.5637 33.5,31.5C 25.1667,31.5 16.8333,31.5 8.5,31.5C 7.66175,31.1583 7.32842,30.4916 7.5,29.5C 7.23219,27.901 7.56552,26.5676 8.5,25.5 Z"/></g>
<g><path style="opacity:0.744" fill="#000000" d="M 124.5,30.5 C 125.833,30.5 127.167,30.5 128.5,30.5C 128.5,31.8333 128.5,33.1667 128.5,34.5C 126.833,34.5 125.167,34.5 123.5,34.5C 123.433,33.0413 123.766,31.7079 124.5,30.5 Z"/></g>
<g><path style="opacity:0.92" fill="#658d2d" d="M 8.5,31.5 C 16.8333,31.5 25.1667,31.5 33.5,31.5C 33.2624,33.4044 32.2624,34.7377 30.5,35.5C 24.1667,35.5 17.8333,35.5 11.5,35.5C 9.73758,34.7377 8.73758,33.4044 8.5,31.5 Z"/></g>
<g><path style="opacity:0.809" fill="#317432" d="M 11.5,35.5 C 17.8333,35.5 24.1667,35.5 30.5,35.5C 24.1238,47.4884 17.7905,47.4884 11.5,35.5 Z"/></g>
</svg>
