<?xml version="1.0" encoding="UTF-8"?>
<!DOCTYPE svg PUBLIC "-//W3C//DTD SVG 1.1//EN" "http://www.w3.org/Graphics/SVG/1.1/DTD/svg11.dtd">
<svg xmlns="http://www.w3.org/2000/svg" version="1.1" width="154px" height="32px" style="shape-rendering:geometricPrecision; text-rendering:geometricPrecision; image-rendering:optimizeQuality; fill-rule:evenodd; clip-rule:evenodd" xmlns:xlink="http://www.w3.org/1999/xlink">
<g><path style="opacity:0.557" fill="#e2cf0e" d="M 13.5,-0.5 C 14.1667,-0.5 14.8333,-0.5 15.5,-0.5C 17.2083,1.21597 18.5416,3.21597 19.5,5.5C 20.4776,5.02335 21.3109,4.35668 22,3.5C 22.7358,6.59197 22.5691,9.59197 21.5,12.5C 20.3473,11.6868 20.3473,10.6868 21.5,9.5C 20.3687,8.39612 19.5354,8.72945 19,10.5C 18.6667,9.83333 18.3333,9.16667 18,8.5C 18.2179,10.5868 18.0512,12.5868 17.5,14.5C 15.7299,13.1804 15.3966,11.6804 16.5,10C 15.9558,9.28281 15.2891,8.78281 14.5,8.5C 14.2964,6.31455 13.6298,4.31455 12.5,2.5C 14.4812,1.89459 14.8146,0.894586 13.5,-0.5 Z"/></g>
<g><path style="opacity:0.851" fill="#fefffe" d="M 105.5,2.5 C 109.911,2.02095 114.078,2.68762 118,4.5C 119.422,7.03007 119.755,9.69674 119,12.5C 115.799,16.0364 112.299,19.2031 108.5,22C 112.152,22.4986 115.818,22.6653 119.5,22.5C 119.5,23.8333 119.5,25.1667 119.5,26.5C 113.5,26.5 107.5,26.5 101.5,26.5C 101.34,24.8008 101.506,23.1341 102,21.5C 105.367,17.7974 109.034,14.464 113,11.5C 113.549,6.03289 111.549,4.69956 107,7.5C 106.883,10.6287 105.383,11.7954 102.5,11C 100.702,7.14214 101.702,4.30881 105.5,2.5 Z"/></g>
<g><path style="opacity:0.824" fill="#fefffe" d="M 138.5,2.5 C 144.741,0.988046 149.241,2.98805 152,8.5C 152.667,12.5 152.667,16.5 152,20.5C 149.646,26.0949 145.479,27.9282 139.5,26C 137.714,25.2155 136.214,24.0488 135,22.5C 132.263,15.0104 133.43,8.34378 138.5,2.5 Z M 142.5,5.5 C 144.017,5.51056 145.184,6.17723 146,7.5C 146.667,12.1667 146.667,16.8333 146,21.5C 143.989,24.0921 142.156,23.9254 140.5,21C 139.428,16.8764 139.262,12.7097 140,8.5C 140.698,7.30943 141.531,6.30943 142.5,5.5 Z"/></g>
<g><path style="opacity:0.84" fill="#2c96d2" d="M 12.5,2.5 C 13.6298,4.31455 14.2964,6.31455 14.5,8.5C 12.0607,9.05255 9.72733,9.05255 7.5,8.5C 6.82811,9.94916 6.16145,11.2825 5.5,12.5C 5.31872,9.60287 5.65205,6.76954 6.5,4C 6.24092,2.73869 5.57425,1.73869 4.5,1C 7.32169,0.5721 9.98835,1.0721 12.5,2.5 Z"/></g>
<g><path style="opacity:0.876" fill="#101210" d="M 14.5,8.5 C 15.2891,8.78281 15.9558,9.28281 16.5,10C 15.3966,11.6804 15.7299,13.1804 17.5,14.5C 18.0512,12.5868 18.2179,10.5868 18,8.5C 18.3333,9.16667 18.6667,9.83333 19,10.5C 19.5354,8.72945 20.3687,8.39612 21.5,9.5C 20.3473,10.6868 20.3473,11.6868 21.5,12.5C 17.7947,18.1105 12.9613,19.4438 7,16.5C 5.69895,16.6387 4.86562,17.3054 4.5,18.5C 4.16667,18.5 3.83333,18.5 3.5,18.5C 3.60357,16.2972 4.27024,14.2972 5.5,12.5C 6.16145,11.2825 6.82811,9.94916 7.5,8.5C 9.72733,9.05255 12.0607,9.05255 14.5,8.5 Z"/></g>
<g><path style="opacity:0.836" fill="#fefffe" d="M 26.5,9.5 C 35.1156,9.79622 43.7823,9.96289 52.5,10C 53,10.5 53.5,11 54,11.5C 54.6667,16.1667 54.6667,20.8333 54,25.5C 52.6124,26.5536 51.1124,26.7203 49.5,26C 48.6998,21.92 48.1998,17.7533 48,13.5C 46.4126,12.273 45.0793,12.6063 44,14.5C 43.6667,18.1667 43.3333,21.8333 43,25.5C 41.6124,26.5536 40.1124,26.7203 38.5,26C 37.6998,21.92 37.1998,17.7533 37,13.5C 35.8869,12.2889 34.7202,12.2889 33.5,13.5C 32.7733,17.5107 32.1066,21.5107 31.5,25.5C 29.9547,26.4519 28.288,26.7852 26.5,26.5C 26.5,20.8333 26.5,15.1667 26.5,9.5 Z"/></g>
<g><path style="opacity:0.815" fill="#fefffe" d="M 59.5,9.5 C 65.1918,9.33868 70.8585,9.50535 76.5,10C 78.3824,12.978 79.8824,16.1447 81,19.5C 82.7812,16.6666 84.2812,13.6666 85.5,10.5C 87.0453,9.54811 88.712,9.21478 90.5,9.5C 89.1916,15.1258 87.0249,20.4591 84,25.5C 82.1862,26.7596 80.3529,26.7596 78.5,25.5C 76.5875,21.3403 74.4209,17.3403 72,13.5C 70.2134,14.3431 68.3801,14.5098 66.5,14C 66,14.5 65.5,15 65,15.5C 64.6667,18.8333 64.3333,22.1667 64,25.5C 62.6124,26.5536 61.1124,26.7203 59.5,26C 58.1888,20.5004 58.1888,15.0004 59.5,9.5 Z"/></g>
<g><path style="opacity:0.862" fill="#92a61f" d="M 21.5,12.5 C 22.0431,12.56 22.3764,12.8933 22.5,13.5C 21.0042,15.9734 20.0042,18.6401 19.5,21.5C 14.5,21.5 9.5,21.5 4.5,21.5C 4.5,20.5 4.5,19.5 4.5,18.5C 4.86562,17.3054 5.69895,16.6387 7,16.5C 12.9613,19.4438 17.7947,18.1105 21.5,12.5 Z"/></g>
<g><path style="opacity:0.76" fill="#fefffe" d="M 124.5,21.5 C 126.199,21.3398 127.866,21.5065 129.5,22C 130.833,23.3333 130.833,24.6667 129.5,26C 127.866,26.4935 126.199,26.6602 124.5,26.5C 124.5,24.8333 124.5,23.1667 124.5,21.5 Z"/></g>
<g><path style="opacity:0.849" fill="#5a872f" d="M 3.5,18.5 C 3.83333,18.5 4.16667,18.5 4.5,18.5C 4.5,19.5 4.5,20.5 4.5,21.5C 9.5,21.5 14.5,21.5 19.5,21.5C 17.8977,25.0954 15.8977,28.4288 13.5,31.5C 12.1667,31.5 10.8333,31.5 9.5,31.5C 7.6778,28.5279 5.84446,25.5279 4,22.5C 3.50999,21.2068 3.34332,19.8734 3.5,18.5 Z"/></g>
</svg>
