<?xml version="1.0" encoding="UTF-8"?>
<!DOCTYPE svg PUBLIC "-//W3C//DTD SVG 1.1//EN" "http://www.w3.org/Graphics/SVG/1.1/DTD/svg11.dtd">
<svg xmlns="http://www.w3.org/2000/svg" version="1.1" width="32px" height="32px" style="shape-rendering:geometricPrecision; text-rendering:geometricPrecision; image-rendering:optimizeQuality; fill-rule:evenodd; clip-rule:evenodd" xmlns:xlink="http://www.w3.org/1999/xlink">
<g><path style="opacity:0.77" fill="#eddb0b" d="M 18.5,-0.5 C 19.1667,-0.5 19.8333,-0.5 20.5,-0.5C 22.1499,1.65066 23.9832,3.65066 26,5.5C 27.2613,5.24092 28.2613,4.57425 29,3.5C 29.7358,6.59197 29.5691,9.59197 28.5,12.5C 27.7611,12.631 27.0944,12.4643 26.5,12C 28.2603,11.0347 28.5937,9.868 27.5,8.5C 26.5224,8.97665 25.6891,9.64332 25,10.5C 24.5831,9.24402 23.7498,8.57735 22.5,8.5C 21.8333,8.5 21.1667,8.5 20.5,8.5C 20.1667,8.5 19.8333,8.5 19.5,8.5C 18.925,6.5887 17.925,4.92203 16.5,3.5C 18.1042,2.71304 18.7709,1.3797 18.5,-0.5 Z"/></g>
<g><path style="opacity:0.695" fill="#2b92ce" d="M 6.5,-0.5 C 6.83333,-0.5 7.16667,-0.5 7.5,-0.5C 10.6552,0.442336 13.6552,1.77567 16.5,3.5C 17.925,4.92203 18.925,6.5887 19.5,8.5C 17.8212,8.28519 16.8212,8.95186 16.5,10.5C 16.1667,10.5 15.8333,10.5 15.5,10.5C 14.5423,7.8753 13.3757,7.8753 12,10.5C 11.2904,9.02674 10.1238,8.36007 8.5,8.5C 8.78448,10.4147 8.45115,12.0813 7.5,13.5C 6.41457,10.2869 6.7479,7.12022 8.5,4C 7.58618,2.59362 6.91951,1.09362 6.5,-0.5 Z"/></g>
<g><path style="opacity:0.879" fill="#10110d" d="M 15.5,10.5 C 15.8333,11.8333 16.1667,11.8333 16.5,10.5C 16.8212,8.95186 17.8212,8.28519 19.5,8.5C 19.8333,8.5 20.1667,8.5 20.5,8.5C 21.7914,9.47283 21.7914,10.4728 20.5,11.5C 21.0253,12.1924 21.6919,12.6924 22.5,13C 21.1118,13.8893 21.2785,14.3893 23,14.5C 23.5,14.1667 24,13.8333 24.5,13.5C 23.5435,11.9246 22.8769,10.258 22.5,8.5C 23.7498,8.57735 24.5831,9.24402 25,10.5C 25.6891,9.64332 26.5224,8.97665 27.5,8.5C 28.5937,9.868 28.2603,11.0347 26.5,12C 27.0944,12.4643 27.7611,12.631 28.5,12.5C 22.7349,18.1964 16.0683,19.5298 8.5,16.5C 6.96227,16.4534 5.96227,17.1201 5.5,18.5C 5.16667,18.5 4.83333,18.5 4.5,18.5C 4.2729,16.0672 5.2729,14.4006 7.5,13.5C 8.45115,12.0813 8.78448,10.4147 8.5,8.5C 10.1238,8.36007 11.2904,9.02674 12,10.5C 13.3757,7.8753 14.5423,7.8753 15.5,10.5 Z"/></g>
<g><path style="opacity:0.867" fill="#bb9203" d="M 20.5,8.5 C 21.1667,8.5 21.8333,8.5 22.5,8.5C 22.8769,10.258 23.5435,11.9246 24.5,13.5C 24,13.8333 23.5,14.1667 23,14.5C 21.2785,14.3893 21.1118,13.8893 22.5,13C 21.6919,12.6924 21.0253,12.1924 20.5,11.5C 21.7914,10.4728 21.7914,9.47283 20.5,8.5 Z"/></g>
<g><path style="opacity:0.884" fill="#92a61e" d="M 28.5,12.5 C 29.65,14.2667 28.9833,15.4334 26.5,16C 27.3319,17.9088 26.9985,19.7422 25.5,21.5C 19.1579,21.6662 12.8246,21.4995 6.5,21C 5.74756,20.3292 5.41423,19.4959 5.5,18.5C 5.96227,17.1201 6.96227,16.4534 8.5,16.5C 16.0683,19.5298 22.7349,18.1964 28.5,12.5 Z"/></g>
<g><path style="opacity:0.928" fill="#749328" d="M 4.5,18.5 C 4.83333,18.5 5.16667,18.5 5.5,18.5C 5.41423,19.4959 5.74756,20.3292 6.5,21C 12.8246,21.4995 19.1579,21.6662 25.5,21.5C 25.1667,22.5 24.5,23.1667 23.5,23.5C 17.8333,23.5 12.1667,23.5 6.5,23.5C 5.06873,22.2196 4.40206,20.5529 4.5,18.5 Z"/></g>
<g><path style="opacity:0.81" fill="#457c31" d="M 6.5,23.5 C 12.1667,23.5 17.8333,23.5 23.5,23.5C 21.8847,26.4495 19.8847,29.1162 17.5,31.5C 15.8333,31.5 14.1667,31.5 12.5,31.5C 10.1153,29.1162 8.11528,26.4495 6.5,23.5 Z"/></g>
</svg>
