<?xml version="1.0" encoding="UTF-8"?>
<!DOCTYPE svg PUBLIC "-//W3C//DTD SVG 1.1//EN" "http://www.w3.org/Graphics/SVG/1.1/DTD/svg11.dtd">
<svg xmlns="http://www.w3.org/2000/svg" version="1.1" width="154px" height="32px" style="shape-rendering:geometricPrecision; text-rendering:geometricPrecision; image-rendering:optimizeQuality; fill-rule:evenodd; clip-rule:evenodd" xmlns:xlink="http://www.w3.org/1999/xlink">
<g><path style="opacity:0.678" fill="#3096d1" d="M 7.5,-0.5 C 7.83333,-0.5 8.16667,-0.5 8.5,-0.5C 11.5436,0.51728 14.5436,1.85061 17.5,3.5C 18.6005,4.60486 19.2671,5.93819 19.5,7.5C 17.3157,8.26627 14.9823,8.93294 12.5,9.5C 11.8333,9.16667 11.1667,8.83333 10.5,8.5C 9.83015,10.2914 9.16348,11.9581 8.5,13.5C 7.24203,10.087 7.57536,6.75363 9.5,3.5C 8.36977,2.37765 7.70311,1.04432 7.5,-0.5 Z"/></g>
<g><path style="opacity:0.72" fill="#ecd806" d="M 18.5,-0.5 C 19.5,-0.5 20.5,-0.5 21.5,-0.5C 22.757,1.68 24.257,3.68 26,5.5C 27.2613,5.24092 28.2613,4.57425 29,3.5C 29.8007,6.36695 29.6341,9.03362 28.5,11.5C 28.2976,10.6364 27.9643,9.63641 27.5,8.5C 26.8333,9.16667 26.1667,9.83333 25.5,10.5C 23.4664,9.54619 21.4664,8.54619 19.5,7.5C 19.2671,5.93819 18.6005,4.60486 17.5,3.5C 18.2341,2.29208 18.5674,0.95875 18.5,-0.5 Z"/></g>
<g><path style="opacity:0.836" fill="#000000" d="M 104.5,5.5 C 107.518,5.33537 110.518,5.50204 113.5,6C 116.835,8.67865 117.335,11.8453 115,15.5C 112.411,17.2112 109.911,19.0445 107.5,21C 111.028,21.089 114.362,21.7556 117.5,23C 112.345,24.61 107.012,24.9434 101.5,24C 100.549,23.2825 100.383,22.4491 101,21.5C 103.592,18.2379 106.759,15.7379 110.5,14C 111.98,11.4503 111.313,9.61694 108.5,8.5C 107.167,9.16667 106.167,10.1667 105.5,11.5C 103.955,12.4519 102.288,12.7852 100.5,12.5C 100.571,9.34772 101.905,7.01439 104.5,5.5 Z"/></g>
<g><path style="opacity:0.807" fill="#000000" d="M 133.5,5.5 C 143.081,4.586 146.914,8.91933 145,18.5C 143.02,23.9055 139.186,25.7389 133.5,24C 130.581,22.1719 128.915,19.5053 128.5,16C 129.264,13.9307 129.764,11.764 130,9.5C 130.69,7.64977 131.856,6.31643 133.5,5.5 Z M 136.5,8.5 C 139.436,9.51528 140.769,11.682 140.5,15C 140.695,17.7739 139.695,19.9405 137.5,21.5C 135.045,20.0897 134.045,17.9231 134.5,15C 134.338,12.498 135.005,10.3313 136.5,8.5 Z"/></g>
<g><path style="opacity:0.862" fill="#131411" d="M 19.5,7.5 C 21.4664,8.54619 23.4664,9.54619 25.5,10.5C 26.1667,9.83333 26.8333,9.16667 27.5,8.5C 27.9643,9.63641 28.2976,10.6364 28.5,11.5C 28.5,11.8333 28.5,12.1667 28.5,12.5C 23.1685,18.3842 16.8351,19.7176 9.5,16.5C 7.96227,16.4534 6.96227,17.1201 6.5,18.5C 6.16667,18.5 5.83333,18.5 5.5,18.5C 5.2729,16.0672 6.2729,14.4006 8.5,13.5C 9.16348,11.9581 9.83015,10.2914 10.5,8.5C 11.1667,8.83333 11.8333,9.16667 12.5,9.5C 14.9823,8.93294 17.3157,8.26627 19.5,7.5 Z"/></g>
<g><path style="opacity:0.804" fill="#000000" d="M 35.5,10.5 C 39.3556,10.8553 43.3556,11.022 47.5,11C 48.5,13 49.5,13 50.5,11C 53.6693,10.0218 56.5027,10.5218 59,12.5C 59.4988,16.4862 59.6655,20.4862 59.5,24.5C 57.8333,24.5 56.1667,24.5 54.5,24.5C 54.665,21.1501 54.4983,17.8168 54,14.5C 52.4126,13.273 51.0793,13.6063 50,15.5C 49.502,18.4816 49.3354,21.4816 49.5,24.5C 47.8561,24.7135 46.3561,24.3802 45,23.5C 44.6667,20.5 44.3333,17.5 44,14.5C 43,13.1667 42,13.1667 41,14.5C 40.6667,17.5 40.3333,20.5 40,23.5C 38.6124,24.5536 37.1124,24.7203 35.5,24C 34.1943,19.5006 34.1943,15.0006 35.5,10.5 Z"/></g>
<g><path style="opacity:0.785" fill="#000000" d="M 63.5,10.5 C 69.0815,10.4985 74.4148,10.8318 79.5,11.5C 80.7639,14.1253 81.9305,16.7919 83,19.5C 83.8917,16.7163 85.0584,14.0496 86.5,11.5C 87.6888,10.5713 89.0222,10.238 90.5,10.5C 89.6956,15.1182 88.0289,19.4515 85.5,23.5C 83.6471,24.7596 81.8138,24.7596 80,23.5C 78.0593,19.9523 76.3926,16.2857 75,12.5C 74.6121,13.428 73.9454,14.0946 73,14.5C 71.5838,13.4267 70.2504,13.4267 69,14.5C 67.6842,17.6883 67.1842,21.0217 67.5,24.5C 65.8561,24.7135 64.3561,24.3802 63,23.5C 62.2316,19.0804 62.3982,14.7471 63.5,10.5 Z"/></g>
<g><path style="opacity:0.643" fill="#90820a" d="M 21.5,10.5 C 23.1207,10.7869 24.1207,11.7869 24.5,13.5C 22.8087,15.2562 20.8087,15.7562 18.5,15C 21.9361,14.7734 22.9361,13.2734 21.5,10.5 Z"/></g>
<g><path style="opacity:0.843" fill="#92a61f" d="M 28.5,12.5 C 29.0431,12.56 29.3764,12.8933 29.5,13.5C 28.1634,16.2392 26.83,18.9058 25.5,21.5C 19.1667,21.5 12.8333,21.5 6.5,21.5C 6.5,20.5 6.5,19.5 6.5,18.5C 6.96227,17.1201 7.96227,16.4534 9.5,16.5C 16.8351,19.7176 23.1685,18.3842 28.5,12.5 Z"/></g>
<g><path style="opacity:0.727" fill="#000000" d="M 120.5,20.5 C 122.167,20.5 123.833,20.5 125.5,20.5C 125.5,21.8333 125.5,23.1667 125.5,24.5C 123.833,24.5 122.167,24.5 120.5,24.5C 120.5,23.1667 120.5,21.8333 120.5,20.5 Z"/></g>
<g><path style="opacity:0.938" fill="#5a862f" d="M 5.5,18.5 C 5.83333,18.5 6.16667,18.5 6.5,18.5C 6.5,19.5 6.5,20.5 6.5,21.5C 12.8333,21.5 19.1667,21.5 25.5,21.5C 23.1414,24.8514 20.8081,28.1847 18.5,31.5C 16.8333,31.5 15.1667,31.5 13.5,31.5C 10.8347,28.6653 8.33472,25.6653 6,22.5C 5.50999,21.2068 5.34332,19.8734 5.5,18.5 Z"/></g>
</svg>
